C:\Users\israe\Dropbox\PhDWork\ExperimentalData\subject1\055\P1S055W02_filtered35.mot
nRows=8
nColumns=28

name C:\Users\israe\Dropbox\PhDWork\ExperimentalData\subject1\055\P1S055W02_filtered35.mot
datacolumns 28
datarows 8
range 1.9000000000 1.9070000000
endheader
time	ground_force_1_vx	ground_force_1_vy	ground_force_1_vz	ground_force_1_px	ground_force_1_py	ground_force_1_pz	ground_moment_1_mx	ground_moment_1_my	ground_moment_1_mz	ground_force_2_vx	ground_force_2_vy	ground_force_2_vz	ground_force_2_px	ground_force_2_py	ground_force_2_pz	ground_moment_2_mx	ground_moment_2_my	ground_moment_2_mz	ground_force_3_vx	ground_force_3_vy	ground_force_3_vz	ground_force_3_px	ground_force_3_py	ground_force_3_pz	ground_moment_3_mx	ground_moment_3_my	ground_moment_3_mz
        1.9000000000	        0.0000000000	        0.0000000000	       -0.0000000000	        0.2000000000	        0.0000000000	       -0.9030000000	       -0.0000000000	       -0.0000000000	       -0.0000000000	      -21.8957185872	      662.7660134165	       96.3968886765	        0.2000000000	        0.0000000000	       -0.3000000000	      -37.2448481294	      -14.5642807971	       79.5372746082	      -10.4505631629	      126.2730117502	       -0.1343289193	        0.2000000000	       -0.0000000000	        0.3030000000	       18.8195358876	        2.1330077606	        7.2546772875	
        1.9010000000	        0.0000000000	        0.0000000000	       -0.0000000000	        0.2000000000	        0.0000000000	       -0.9030000000	       -0.0000000000	       -0.0000000000	       -0.0000000000	      -21.6611315496	      661.3531434903	       96.7101152763	        0.2000000000	        0.0000000000	       -0.3000000000	      -37.3492620891	      -14.5960229186	       79.3504098036	      -10.5786351197	      129.4859575417	       -1.6355055010	        0.2000000000	       -0.0000000000	        0.3030000000	       19.2319635873	        2.2227332559	        7.4475724970	
        1.9020000000	        0.0000000000	        0.0000000000	       -0.0000000000	        0.2000000000	        0.0000000000	       -0.9030000000	       -0.0000000000	       -0.0000000000	       -0.0000000000	      -21.4165123342	      659.8768053322	       97.0168461799	        0.2000000000	        0.0000000000	       -0.3000000000	      -37.4447558893	      -14.6265751281	       79.1591989289	      -10.7092206398	      132.6490058252	       -3.2080032471	        0.2000000000	       -0.0000000000	        0.3030000000	       19.6350968172	        2.3146404542	        7.6414614305	
        1.9030000000	        0.0000000000	        0.0000000000	       -0.0000000000	        0.2000000000	        0.0000000000	       -0.9030000000	       -0.0000000000	       -0.0000000000	       -0.0000000000	      -21.1630029421	      658.3500821939	       97.3193665626	        0.2000000000	        0.0000000000	       -0.3000000000	      -37.5311021523	      -14.6557515976	       78.9633383319	      -10.8488506926	      135.7896921446	       -4.8386096961	        0.2000000000	       -0.0000000000	        0.3030000000	       20.0297337406	        2.4088855929	        7.8375507293	
        1.9040000000	        0.0000000000	        0.0000000000	       -0.0000000000	        0.2000000000	        0.0000000000	       -0.9030000000	       -0.0000000000	       -0.0000000000	       -0.0000000000	      -20.9027707362	      656.7867171128	       97.6197027194	        0.2000000000	        0.0000000000	       -0.3000000000	      -37.6083011583	      -14.6832636180	       78.7624694522	      -11.0036164171	      138.9386582190	       -6.5138212037	        0.2000000000	       -0.0000000000	        0.3030000000	       20.4167863445	        2.5056873485	        8.0368683164	
        1.9050000000	        0.0000000000	        0.0000000000	       -0.0000000000	        0.2000000000	        0.0000000000	       -0.9030000000	       -0.0000000000	       -0.0000000000	       -0.0000000000	      -20.6380141043	      655.1972647028	       97.9195225756	        0.2000000000	        0.0000000000	       -0.3000000000	      -37.6767671247	      -14.7088322149	       78.5561784474	      -11.1788957660	      142.1252576663	       -8.2207565968	        0.2000000000	       -0.0000000000	        0.3030000000	       20.7974009821	        2.6053108246	        8.2402106278	
        1.9060000000	        0.0000000000	        0.0000000000	       -0.0000000000	        0.2000000000	        0.0000000000	       -0.9030000000	        0.0000000000	        0.0000000000	        0.0000000000	      -20.3698841749	      653.5868146631	       98.2200498803	        0.2000000000	        0.0000000000	       -0.3000000000	      -37.7375787141	      -14.7322542338	       78.3439376346	      -11.3791173774	      145.3731175394	       -9.9471663046	        0.2000000000	       -0.0000000000	        0.3030000000	       21.1732094358	        2.7079617677	        8.4480344084	
        1.9070000000	       -0.0000000000	        0.0000000000	        0.0000000000	        0.2000000000	        0.0000000000	       -0.9030000000	        0.0000000000	        0.0000000000	        0.0000000000	      -20.0983258353	      651.9539869748	       98.5220747501	        0.2000000000	        0.0000000000	       -0.3000000000	      -37.7924663174	      -14.7534732169	       78.1251409993	      -11.6076539994	      148.6980767901	      -11.6815015812	        0.2000000000	       -0.0000000000	        0.3030000000	       21.5466158382	        2.8137456984	        8.6604259781	
